<?xml version="1.0" encoding="iso-8859-1"?>
<!-- Uploaded to: SVG Repo, www.svgrepo.com, Generator: SVG Repo Mixer Tools -->
<svg version="1.1" id="Layer_1" xmlns="http://www.w3.org/2000/svg" xmlns:xlink="http://www.w3.org/1999/xlink" 
	 viewBox="0 0 480 480" xml:space="preserve">
<path style="fill:#B88B34;" d="M472,468H8v-24c0-8.84,7.16-16,16-16h432c8.84,0,16,7.16,16,16V468z"/>
<rect x="392" y="92" style="fill:#D94452;" width="80" height="144"/>
<path style="fill:#E88F97;" d="M98.384,169.968l115.632-79.264c1.68-1.152,3.736-1.616,5.752-1.304L339.336,108H392v108
	l-72.536-5.328l-53.424,32.352c-5.976,3.616-13.608,2.944-18.856-1.672l-2.376-2.088c-6.936-6.104-7.28-16.8-0.752-23.328
	l29.272-29.272l-63.2-21.112L112,212.64c-12.424,5.96-26.08-5.528-22.312-18.792l5.52-19.472
	C95.72,172.584,96.84,171.024,98.384,169.968z"/>
<path d="M472,84h-80c-4.424,0-8,3.584-8,8v8h-44.048l-118.96-18.512c-4.04-0.608-8.128,0.624-11.504,2.936L93.856,164h-0.008
	c-3.064,0-5.312,4.928-6.336,8.504l-5.52,19.32c-2.608,9.2,0.312,18.664,7.632,24.832c7.312,6.16,17.216,7.376,25.84,3.24
	l95.208-45.704l47.856,15.984L238.4,210.28c-4.664,4.672-7.224,11.136-7.008,17.736s3.176,12.888,8.144,17.256l2.368,2.08
	c4.512,3.976,10.144,6,15.832,6c4.272,0,8.576-1.152,12.448-3.496l51.248-31.032L384,223.432V236c0,4.416,3.576,8,8,8h80
	c4.424,0,8-3.584,8-8V92C480,87.584,476.424,84,472,84z M320.056,202.688c-1.672-0.128-3.312,0.272-4.728,1.136l-53.44,32.352
	c-2.992,1.816-6.784,1.488-9.424-0.832l-2.376-2.08c-1.672-1.48-2.64-3.52-2.712-5.752s0.76-4.336,2.336-5.912l29.272-29.264
	c1.96-1.96,2.768-4.792,2.136-7.496c-0.64-2.696-2.624-4.872-5.248-5.752l-63.208-21.12c-0.824-0.28-1.68-0.416-2.536-0.416
	c-1.184,0-2.368,0.264-3.464,0.792l-98.128,47.088c-4.328,2.072-7.688-0.312-8.616-1.096c-0.928-0.784-3.304-3.688-2-8.304
	l6.08-19.464v-0.008l115.08-79.264l119.304,18.608c0.4,0.064,0.536,0.096,0.952,0.096H384v91.384L320.056,202.688z M464,228h-64v-12
	V108v-8h64V228z"/>
<path style="fill:#F9D58F;" d="M272,396H64v-16c0-8.84,8.496-16,17.336-16h176c8.832,0,14.664,7.16,14.664,16V396z"/>
<path style="fill:#FDF1DA;" d="M296,428H40v-16c0-8.84,8.496-16,17.336-16h224c8.832,0,14.664,7.16,14.664,16V428z"/>
<path d="M296,436H40c-4.416,0-8-3.584-8-8v-16c0-13.008,11.6-24,25.336-24h224c12.92,0,22.664,10.32,22.664,24v16
	C304,432.416,300.424,436,296,436z M48,420h240v-8c0-3.984-2.064-8-6.664-8h-224c-4.712,0-9.336,3.96-9.336,8V420z"/>
<path style="fill:#F5B945;" d="M248,364H88v-40c0-26.512,22.824-48,49.336-48h64C227.84,276,248,297.488,248,324V364z"/>
<path d="M456,420H304v-8c0-13.68-9.744-24-22.664-24H280v-8c0-13.68-9.744-24-22.664-24H256v-32c0-31.4-24.008-56-54.664-56H176v-16
	c0-4.416-3.584-8-8-8s-8,3.584-8,8v16h-22.664C106.256,268,80,293.648,80,324v32.128C66.872,356.824,56,367.424,56,380v8.128
	C42.872,388.824,32,399.424,32,412v8h-8c-13.232,0-24,10.768-24,24v24c0,4.416,3.584,8,8,8h464c4.424,0,8-3.584,8-8v-24
	C480,430.768,469.232,420,456,420z M96,324c0-21.68,18.928-40,41.336-40h64c21.68,0,38.664,17.568,38.664,40v32H96V324z M72,380
	c0-4.04,4.624-8,9.336-8H88h160h9.336c4.6,0,6.664,4.016,6.664,8v8H72V380z M48,412c0-4.04,4.624-8,9.336-8H64h208h9.336
	c4.6,0,6.664,4.016,6.664,8v8H48V412z M464,460H16v-16c0-4.408,3.592-8,8-8h16h256h160c4.416,0,8,3.592,8,8V460z"/>
<path style="fill:#FFFFFF;" d="M136,316h-8c-4.416,0-8-3.584-8-8s3.584-8,8-8h8c4.416,0,8,3.584,8,8S140.416,316,136,316z"/>
<path d="M64,42.4c-4.416,0-8-3.584-8-8V12c0-4.416,3.584-8,8-8s8,3.584,8,8v22.4C72,38.816,68.416,42.4,64,42.4z"/>
<path d="M64,132c-4.416,0-8-3.584-8-8v-22.4c0-4.416,3.584-8,8-8s8,3.584,8,8V124C72,128.416,68.416,132,64,132z"/>
<path d="M120,76H97.6c-4.416,0-8-3.584-8-8s3.584-8,8-8H120c4.416,0,8,3.584,8,8S124.416,76,120,76z"/>
<path d="M30.4,76H8c-4.416,0-8-3.584-8-8s3.584-8,8-8h22.4c4.416,0,8,3.584,8,8S34.816,76,30.4,76z"/>
<path d="M103.6,115.6c-2.048,0-4.096-0.784-5.656-2.344l-15.84-15.84c-3.128-3.128-3.128-8.184,0-11.312s8.184-3.128,11.312,0
	l15.84,15.84c3.128,3.128,3.128,8.184,0,11.312C107.688,114.816,105.648,115.6,103.6,115.6z"/>
<path d="M40.24,52.24c-2.048,0-4.096-0.784-5.656-2.344l-15.84-15.84c-3.128-3.128-3.128-8.184,0-11.312s8.184-3.128,11.312,0
	l15.84,15.84c3.128,3.128,3.128,8.184,0,11.312C44.336,51.464,42.288,52.24,40.24,52.24z"/>
<path d="M24.4,115.6c-2.048,0-4.096-0.784-5.656-2.344c-3.128-3.128-3.128-8.184,0-11.312l15.84-15.84
	c3.128-3.128,8.184-3.128,11.312,0s3.128,8.184,0,11.312l-15.84,15.84C28.496,114.816,26.448,115.6,24.4,115.6z"/>
<path d="M87.76,52.24c-2.048,0-4.096-0.784-5.656-2.344c-3.128-3.128-3.128-8.184,0-11.312l15.84-15.84
	c3.128-3.128,8.184-3.128,11.312,0c3.128,3.128,3.128,8.184,0,11.312l-15.84,15.84C91.848,51.464,89.808,52.24,87.76,52.24z"/>
<path d="M344,380c-4.424,0-8-3.584-8-8v-22.128c0-4.416,3.576-8,8-8s8,3.584,8,8V372C352,376.416,348.424,380,344,380z"/>
<path d="M408,324h-24c-4.424,0-8-3.584-8-8s3.576-8,8-8h24c4.424,0,8,3.584,8,8S412.424,324,408,324z"/>
<path d="M384,364c-1.936,0-3.88-0.696-5.424-2.12l-16.968-15.648c-3.248-3-3.456-8.056-0.464-11.304
	c3.008-3.24,8.064-3.456,11.304-0.464l16.968,15.648c3.248,3,3.456,8.056,0.464,11.304C388.304,363.136,386.16,364,384,364z"/>
<path d="M367.032,300c-2.16,0-4.304-0.864-5.88-2.576c-2.992-3.248-2.792-8.312,0.464-11.304l16.968-15.648
	c3.256-2.992,8.312-2.784,11.304,0.464c2.992,3.248,2.792,8.312-0.464,11.304l-16.968,15.648
	C370.912,299.304,368.968,300,367.032,300z"/>
</svg>